<?xml version="1.0" encoding="UTF-8"?>
<svg id="Capa_1" data-name="Capa 1" xmlns="http://www.w3.org/2000/svg" version="1.1" viewBox="0 0 160 160">
  <defs>
    <style>
      .cls-1 {
        fill: #3b3735;
        stroke-width: 0px;
      }

      .cls-2 {
        fill: #f5f0dd;
        stroke: #e74f40;
        stroke-miterlimit: 10;
        stroke-width: 6.1px;
      }
    </style>
  </defs>
  <circle class="cls-2" cx="80" cy="80" r="71.5"/>
  <g>
    <path class="cls-1" d="M57.3,117.3c-1,0-1.8-.8-1.8-1.8v-17c0-1,.8-1.8,1.8-1.8s1.8.8,1.8,1.8v17c0,1-.8,1.8-1.8,1.8Z"/>
    <path class="cls-1" d="M64.9,118.8h-15.1c-1,0-1.8-.8-1.8-1.8s.8-1.8,1.8-1.8h15.1c1,0,1.8.8,1.8,1.8s-.8,1.8-1.8,1.8Z"/>
    <path class="cls-1" d="M99,63.4h-10c-1,0-1.8-.8-1.8-1.8v-26.7c0-1,.8-1.8,1.8-1.8h10c1,0,1.8.8,1.8,1.8v26.7c0,1-.8,1.8-1.8,1.8ZM90.8,59.8h6.4v-23.1h-6.4v23.1Z"/>
    <path class="cls-1" d="M99,44.9h-10c-1,0-1.8-.8-1.8-1.8v-8.2c0-1,.8-1.8,1.8-1.8h10c1,0,1.8.8,1.8,1.8v8.2c0,1-.8,1.8-1.8,1.8ZM90.8,41.3h6.4v-4.6h-6.4v4.6Z"/>
    <path class="cls-1" d="M106.7,118.8h-25.4c-1,0-1.8-.8-1.8-1.8v-43.9c0-7.3,5.9-13.3,13.3-13.3h2.5c7.3,0,13.3,5.9,13.3,13.3v43.9c0,1-.8,1.8-1.8,1.8ZM83.1,115.2h21.9v-42.2c0-5.3-4.3-9.7-9.7-9.7h-2.5c-5.3,0-9.7,4.3-9.7,9.7v42.2Z"/>
    <path class="cls-1" d="M106.7,109.8h-11.9c-1,0-1.8-.8-1.8-1.8v-30.9c0-1,.8-1.8,1.8-1.8h11.9c1,0,1.8.8,1.8,1.8v30.9c0,1-.8,1.8-1.8,1.8ZM96.6,106.2h8.3v-27.3h-8.3v27.3Z"/>
    <g>
      <path class="cls-1" d="M56.6,100.1c-.3,0-.6,0-.8-.2-3-.3-5.7-1.6-7.9-3.8-7.8-8-7.6-25.7-7.6-26.5,0-1,.8-1.8,1.8-1.8h29.5c1,0,1.8.8,1.8,1.8,0,.8.3,18.6-7.6,26.6-2.5,2.6-5.6,3.9-9.2,3.9ZM43.9,71.4c.1,4.5,1.1,16.6,6.5,22.1,1.9,1.9,4.1,2.8,6.7,2.8s.3,0,.5,0c2.2-.2,4-1.1,5.6-2.8,5.5-5.6,6.4-17.7,6.6-22.3h-25.9Z"/>
      <path class="cls-1" d="M68.9,85.7h-25c-1,0-1.8-.8-1.8-1.8s.8-1.8,1.8-1.8h25c1,0,1.8.8,1.8,1.8s-.8,1.8-1.8,1.8Z"/>
    </g>
  </g>
</svg>