<?xml version="1.0" encoding="UTF-8"?>
<svg id="Capa_1" data-name="Capa 1" xmlns="http://www.w3.org/2000/svg" version="1.1" viewBox="0 0 160 160">
  <defs>
    <style>
      .cls-1 {
        fill: #3b3735;
        stroke-width: 0px;
      }
    </style>
  </defs>
  <path class="cls-1" d="M114.2,53.4V14c0-1.5-1.2-2.7-2.7-2.7h-15.1c-1.5,0-2.7,1.2-2.7,2.7v39.5c-6.9,3.2-11.6,10.2-11.6,18.2v66.3c0,1.5,1.2,2.7,2.7,2.7h38.5c1.5,0,2.7-1.2,2.7-2.7v-66.3c0-8.2-4.9-15.1-11.8-18.3ZM99.1,16.7h9.7v6.9h-9.7v-6.9ZM99.1,51.6v-22.5h9.7v22.5h-9.7ZM87.5,135.2s0-63.7,0-63.7c0-7.5,5.6-13.5,12.7-14.5h7.7c7.2,1,12.7,7.2,12.7,14.5v3.5h-15.4c-1.5,0-2.7,1.2-2.7,2.7v46.6c0,1.5,1.2,2.7,2.7,2.7h15.4v8.2h-33.1ZM120.4,80.4v41.2h-12.5v-41.2h12.5Z"/>
  <path class="cls-1" d="M61.4,106.5c11.9-12.1,11.5-38.9,11.5-40.2s-1.2-2.7-2.7-2.7H25.6c-1.5,0-2.7,1.2-2.7,2.7s-.3,27.9,11.5,40c3.2,3.2,7.1,5.1,11.5,5.7v23.2h-8.6c-1.5,0-2.7,1.2-2.7,2.7s1.2,2.7,2.7,2.7h22.8c1.5,0,2.7-1.2,2.7-2.7s-1.2-2.7-2.7-2.7h-8.8v-23.1c3.8-.7,7.2-2.6,10.1-5.5ZM28.3,68.8h39.1c-.2,3.5-.6,9.9-2,16.5H30.2c-1.4-6.5-1.8-12.7-1.9-16.2v-.3ZM31.7,90.7h32.2c-1.5,4.5-3.5,8.8-6.5,11.8-2.4,2.6-5.1,3.9-8.5,4.2h-.8c-3.9,0-7.2-1.4-10.1-4.2-2.9-3-5-7.2-6.4-11.8Z"/>
</svg>