<?xml version="1.0" encoding="UTF-8"?>
<svg id="Capa_1" data-name="Capa 1" xmlns="http://www.w3.org/2000/svg" version="1.1" viewBox="0 0 160 160">
  <defs>
    <style>
      .cls-1 {
        fill: #3b3735;
        stroke-width: 0px;
      }
    </style>
  </defs>
  <path class="cls-1" d="M146.4,49.8c-3.2-2.8-4.4-6-4-10.3v-10l5.9-.3V11.9h-40.5v17.3l5.7.3v2.2H25.2v53.3c.1,1.3,0,1.9-1,2.6-12.5,8.4-16.6,22.6-10.6,36.2,4.8,11,17.5,17.9,29.3,16.1,2.1-.3,4-.7,6-1.3.7-.1,1.3-.3,2.1-.4v6.8h72.2v-12.8c0-.9,0-1.3.3-1.6.1-.3.7-.3,1.6-.3h13.8c7.3,0,11.3-4,11.3-11.3v-59.7c0-4.3-1.2-7.3-3.8-9.5ZM143.4,16.7v7.9h-31.1v-7.5c.1-.1.6-.4.7-.4h30.4ZM123.2,106.1c0-.1.4-.7.6-.7h13.5-.1c1.5-.1,2.8-.1,4.3-.1h3.7v4.4c0,4,.1,7.8,0,11.6,0,2.2-2.2,4.3-4.7,4.3h-16.4c-.1,0-.7-.6-.7-.7v-18.6ZM39.4,135.6c-12.5,0-22.9-9.8-23.6-22.2-.7-12.6,8.1-23.5,20.7-25.1,1-.3,2.2-.3,3.2-.3h-.1c5.1-.1,9.8,1.5,14.1,4.7.3.1.6.9.6,1.2-3.7,5-3.5,10.6-3.4,16v21.9c-.1.4-.7,1.5-1.2,1.5-2.5.7-5.1,1.5-7.6,2.2-.7.1-1.3.4-2.1.6v-.4h-.6ZM93.6,108.3c-.1-4.7.7-8.5,2.8-12,2.5-4.3,4.7-8.5,7-13.1.9-1.5,1.6-3.1,2.5-4.7l.7,1.3c1,1.8,1.8,3.2,2.6,4.8.9,1.8,1.6,3.4,2.5,5,1.9,3.7,3.8,7.3,5.9,10.9.9,1.8.9,3.4.9,5.1v34.5h-24.9v-15.1c0-5.4.1-11.2,0-16.7ZM56,104.1c.3-.3.9-.3,1.6-.3h31.3v36.4h-33.2v-34.5c-.1-.9,0-1.3.3-1.6ZM30.3,84.5v-26.7c0-.7.1-1.2.3-1.3.1-.3.6-.3,1.3-.3h42.7v-4.7h-42.4c-1,0-1.5,0-1.8-.3-.3-.3-.3-.9-.3-1.6.1-4,0-8.1,0-11.7-.1-.6,0-1,.1-1.2.1-.3.4-.3,1-.3h63.4c.4,0,.9.1,1,.3.3.1.3.6.3,1.2v19.5c0,.7-.1,1.2-.3,1.3-.1.3-.6.3-1.3.3h-28.6v10.3c.1,2.3-.4,4.3-1.5,6.2-1.9,3.4-3.7,6.6-5.4,10.1s-1.3,2.3-1.9,3.5c-4.4-3.2-8.5-5-12.9-5.6-1.6-.3-3.2-.3-4.7-.3h.3c-3.4-.1-6.5.4-9.4,1.3ZM103.2,69.6v1.2h-32.7.1v-7h31.1c.6,0,1.2.1,1.3.3.1.3.1.7.1,1.3v4.3ZM57.5,98.8h-.3c0,.1,1.8-3.4,1.8-3.4,1.6-3.1,3.2-6,4.7-9l1-1.9c1.3-2.6,2.6-5.3,4.1-7.8.4-.6,1.2-1.2,1.6-1.2h31.6c-.1.3-.3.6-.3.7l-1.2,2.2c-3.2,6.3-6.8,12.8-10.1,19.1-.3.6-1.2,1.2-1.6,1.2h-31.3ZM100.8,57.8c-.1-.8-.1-2-.1-3.5v-17.5h12.9v1.9c.1,2.2.1,4.3,0,6.3,0,.7-.9,1.6-1.6,2.3l-.3.3-1.5,1.5c-2.6,2.5-3.7,3.7-4.4,9.7-1.5.2-2.6.3-3.4.3-.7-.3-1.2-.7-1.6-1.3ZM111,72.8v-1.5h.3c.1,0,.9-.3,1.2-.3h31.7c.4,0,1,.1,1,.1.1.1.1.4.1,1v27.4c0,.6-.1.9-.1.9,0,.1-.3.1-.9.1h-20c-.6,0-1.3-.6-1.6-1l-1.6-2.9c-3.2-6.2-6.8-12.5-9.7-18.8-.6-1.5-.4-3.4-.4-5.1ZM134.1,66.2h-21.3c-1.8,0-1.9-.3-2.1-2.1-.7-6.5,1-11,5.4-14.5,2.6-2.1,2.5-4.8,2.3-7.3v-12.6h19.1v15c0,1.5.7,3.1,1.6,4.4h.1c4.1,4.8,6.1,10.3,5.9,16.4v.7h-11.2Z"/>
  <g>
    <path class="cls-1" d="M44.7,43.5q-.4-3.1,2.3-3.1h26.4v3.1h-28.8Z"/>
    <path class="cls-1" d="M74.2,44.2h-30.1v-.6c-.4-1.8-.4-2.6,0-3.4.6-.6,1.5-.6,2.9-.6h27v4.5h.1ZM45.3,42.7h27.4v-1.6h-27.4v1.5h0Z"/>
  </g>
  <path class="cls-1" d="M72.3,111.4c-2.8,0-5.4,1-7.3,3.1-2.1,2.1-3.1,4.7-3.1,7.6s1.2,5.3,3.2,7.3c1.9,2.1,4.5,3.1,7.2,3.1s5.4-1.2,7.5-3.2c2.1-2.1,3.1-4.7,3.1-7.5-.1-5.6-5-10.4-10.6-10.4ZM77.8,122c0,3.2-2.5,5.7-5.6,5.7s-2.9-.6-4.1-1.8c-1-1.2-1.6-2.6-1.6-4.1s.6-2.9,1.8-4c1-1,2.5-1.6,4-1.6h.1c3.1,0,5.4,2.5,5.4,5.7Z"/>
</svg>