<?xml version="1.0" encoding="UTF-8"?>
<svg id="Capa_1" data-name="Capa 1" xmlns="http://www.w3.org/2000/svg" version="1.1" viewBox="0 0 160 160">
  <defs>
    <style>
      .cls-1 {
        fill: #3b3735;
        stroke-width: 0px;
      }
    </style>
  </defs>
  <path class="cls-1" d="M79.2,129.6c-26.4,0-47.9-21.5-47.9-47.9s21.5-47.9,47.9-47.9,47.9,21.5,47.9,47.9-21.5,47.9-47.9,47.9ZM79.2,39.7c-23.1,0-42,18.9-42,42s18.9,42,42,42,42-18.9,42-42-18.9-42-42-42Z"/>
  <path class="cls-1" d="M79.2,108.3c-14.5,0-26.4-11.9-26.4-26.4s11.9-26.4,26.4-26.4,26.4,11.9,26.4,26.4-11.9,26.4-26.4,26.4ZM79.2,61.3c-11.4,0-20.6,9.2-20.6,20.6s9.2,20.6,20.6,20.6,20.6-9.2,20.6-20.6-9.2-20.6-20.6-20.6Z"/>
  <path class="cls-1" d="M34.1,47.2c0-10.6-5.3-18.9-12.2-18.9s-12.2,8.3-12.2,18.9,4,16.6,9.5,18.4v65.2c0,1.7,1.4,3,3,3s3-1.4,3-3v-65.4c5.2-2.2,8.9-9.4,8.9-18.2ZM22.7,60.2c-.1,0-.3,0-.4,0-.3,0-.5,0-.8.1-2.8-.5-5.8-5.8-5.8-12.9s3.3-13,6.2-13c3,0,6.2,5.5,6.2,13s-2.8,12-5.5,12.8Z"/>
  <path class="cls-1" d="M146,33.7c-1.7,0-3,1.4-3,3v13.6c0,6.2-2.3,10-6.2,10s-6.2-3.7-6.2-10v-13.6c0-1.7-1.2-3-3-3s-3,1.4-3,3v13.6c0,9.8,4.6,14.3,9.4,15.5v65.1c0,1.7,1.4,3,3,3s3-1.4,3-3v-65.2c4.7-1.3,9.1-5.9,9.1-15.5v-13.6c0-1.7-1.2-3-3-3Z"/>
  <path class="cls-1" d="M137,66.1c-1.6,0-3-1.2-3-3v-26.5c0-1.6,1.2-3,3-3s3,1.2,3,3v26.5c0,1.6-1.2,3-3,3Z"/>
</svg>