<?xml version="1.0" encoding="UTF-8"?>
<svg id="Capa_1" data-name="Capa 1" xmlns="http://www.w3.org/2000/svg" version="1.1" viewBox="0 0 160 160">
  <defs>
    <style>
      .cls-1 {
        fill: #3b3735;
        stroke-width: 0px;
      }

      .cls-2 {
        fill: #f5f0dd;
        stroke: #e74f40;
        stroke-miterlimit: 10;
        stroke-width: 6.1px;
      }
    </style>
  </defs>
  <circle class="cls-2" cx="80" cy="80" r="71.5"/>
  <g>
    <path class="cls-1" d="M79.3,112.2c-16.9,0-30.7-13.8-30.7-30.7s13.8-30.7,30.7-30.7,30.7,13.8,30.7,30.7-13.8,30.7-30.7,30.7ZM79.3,54.6c-14.8,0-26.9,12.1-26.9,26.9s12.1,26.9,26.9,26.9,26.9-12.1,26.9-26.9-12.1-26.9-26.9-26.9Z"/>
    <path class="cls-1" d="M79.3,98.5c-9.3,0-16.9-7.6-16.9-16.9s7.6-16.9,16.9-16.9,16.9,7.6,16.9,16.9-7.6,16.9-16.9,16.9ZM79.3,68.4c-7.3,0-13.2,5.9-13.2,13.2s5.9,13.2,13.2,13.2,13.2-5.9,13.2-13.2-5.9-13.2-13.2-13.2Z"/>
    <g>
      <path class="cls-1" d="M42.8,114.9c-1,0-1.9-.8-1.9-1.9v-43.4c0-1,.8-1.9,1.9-1.9s1.9.8,1.9,1.9v43.4c0,1-.8,1.9-1.9,1.9Z"/>
      <path class="cls-1" d="M42.6,71.5c-4.4,0-7.8-5.3-7.8-12.1s3.4-12.1,7.8-12.1,7.8,5.3,7.8,12.1-3.4,12.1-7.8,12.1ZM42.6,51.2c-1.9,0-4,3.5-4,8.3s2.1,8.3,4,8.3,4-3.5,4-8.3-2.1-8.3-4-8.3Z"/>
    </g>
    <g>
      <path class="cls-1" d="M116.3,114.9c-1,0-1.9-.8-1.9-1.9v-43.4c0-1,.8-1.9,1.9-1.9s1.9.8,1.9,1.9v43.4c0,1-.8,1.9-1.9,1.9Z"/>
      <path class="cls-1" d="M116.2,71.5c-3.6,0-7.8-2.7-7.8-10.2v-8.7c0-1,.8-1.9,1.9-1.9s1.9.8,1.9,1.9v8.7c0,4,1.5,6.4,4,6.4s4-2.4,4-6.4v-8.7c0-1,.8-1.9,1.9-1.9s1.9.8,1.9,1.9v8.7c0,7.5-4.2,10.2-7.8,10.2Z"/>
    </g>
    <path class="cls-1" d="M116.3,71.5c-1,0-1.9-.8-1.9-1.9v-17c0-1,.8-1.9,1.9-1.9s1.9.8,1.9,1.9v17c0,1-.8,1.9-1.9,1.9Z"/>
  </g>
</svg>