<?xml version="1.0" encoding="UTF-8"?>
<svg id="Capa_1" data-name="Capa 1" xmlns="http://www.w3.org/2000/svg" version="1.1" viewBox="0 0 160 160">
  <defs>
    <style>
      .cls-1 {
        fill: #3b3735;
        stroke-width: 0px;
      }

      .cls-2 {
        fill: #f5f0dd;
        stroke: #e74f40;
        stroke-miterlimit: 10;
        stroke-width: 6.1px;
      }
    </style>
  </defs>
  <circle class="cls-2" cx="80" cy="80" r="71.5"/>
  <g>
    <g>
      <path class="cls-1" d="M35.3,47.2h60.2v-2.5c-1.3,0-2.6-.1-3.9-.2v-10.9h26.6v10.9c-1.3,0-2.5.1-4,.2,0,2.4.2,4.8,0,7.2-.3,3.1.6,5.4,2.9,7.4,1.8,1.6,2.4,3.7,2.4,6.2,0,13.6,0,27.1,0,40.7,0,4.7-2.5,7.2-7.2,7.2-3.1,0-6.2,0-9.4,0-1.4,0-1.9.3-1.9,1.8.1,2.7,0,5.4,0,8.2h-48.2v-4.7c-2.2.5-4.1,1.1-6.1,1.4-7.9,1.2-16.3-3.4-19.5-10.7-4-9-1.2-18.5,7.1-24.1.9-.6,1-1.3,1-2.2,0-11.3,0-22.6,0-33.8,0-.6,0-1.1,0-1.9ZM37.6,83.5c3.4-1.3,6.6-1.5,9.9-1.1,3.3.5,6.3,2,9.1,4,1.8-3.4,3.4-6.6,5.2-9.8.8-1.4,1.1-2.8,1.1-4.4,0-2.1,0-4.2,0-6.5.8,0,1.4,0,2,0,5.7,0,11.3,0,17,0,1.2,0,1.7-.3,1.6-1.6,0-4.4,0-8.8,0-13.3,0-1-.3-1.5-1.4-1.5-14.4,0-28.8,0-43.2,0-1.1,0-1.4.4-1.4,1.5,0,2.7.1,5.3,0,8,0,1.5.5,1.8,1.9,1.8,8.8,0,17.6,0,26.3,0,.7,0,1.3,0,2,0v2.2c-.7,0-1.3,0-1.9,0-8.9,0-17.8,0-26.7,0-1.2,0-1.6.3-1.6,1.6,0,5.8,0,11.5,0,17.3,0,.5,0,.9.1,1.7ZM44.5,117.9v.4c2.5-.7,4.9-1.3,7.2-2,.5-.2,1.1-.9,1.1-1.4.1-4,0-8.1.1-12.2,0-4.6-.9-9.3,2.2-13.4.2-.2-.2-1.2-.5-1.4-3.6-2.7-7.6-3.8-12.2-3.2-8.8,1.2-15.1,8.8-14.6,17.7.5,8.7,7.8,15.5,16.6,15.6ZM98.9,121c0-.9,0-1.7,0-2.6,0-6.9.1-13.7,0-20.6,0-1.5.3-3.1-.6-4.7-2-3.5-3.8-7.2-5.7-10.7-.8-1.6-1.7-3.1-2.7-5-2.4,4.5-4.4,8.8-6.9,12.9-1.6,2.7-2.1,5.4-2,8.4.1,5.4,0,10.8,0,16.2,0,2,0,3.9,0,5.9h17.8ZM97.9,44.7c0,2.7,0,5.2,0,7.7,0,2.1.7,4.4-1.3,6.1-3.4,2.7-4.3,6.2-3.9,10.3.2,1.4.4,1.8,1.9,1.8,7,0,13.9,0,20.9,0,.5,0,1.1,0,1.7-.1,0-.4,0-.7.1-.9.2-6.6.2-6.6-4.2-11.6-.6-.7-1-1.7-1-2.6-.1-3.5,0-7,0-10.7h-14ZM55.1,121h23.6v-25.7c-.6,0-1.1,0-1.6,0-6.8,0-13.5,0-20.3,0-1.6,0-1.8.7-1.8,1.9,0,7.3,0,14.6,0,21.9,0,.6,0,1.2,0,2ZM105,72.8c-3.6,0-7.3,0-10.9,0-.5,0-1.3.4-1.3.6,0,1.6-.3,3.5.3,4.9,2.4,5,5.1,9.9,7.7,14.8.3.5,1,.9,1.5,1,4.5,0,9,0,13.6,0,.9,0,1.3-.3,1.3-1.3,0-6.2,0-12.5,0-18.7,0-1-.4-1.3-1.4-1.3-3.6,0-7.2,0-10.7,0ZM55.9,92.7c.5,0,.7.2.9.2,7.1,0,14.2,0,21.3,0,.5,0,1.3-.6,1.6-1.1,2.6-4.8,5.1-9.6,7.7-14.4.2-.3.2-.7.4-1.1-.3,0-.4-.1-.5-.1-7.2,0-14.4,0-21.7,0-.5,0-1.2.5-1.5,1-1.2,2.2-2.4,4.4-3.5,6.6-1.5,2.9-3.1,5.9-4.7,9ZM117.1,96.3c-5.2,0-10.1,0-15,0-.3,0-.9.7-.9,1,0,4.3,0,8.5,0,12.8,0,.3.6,1,1,1,3.7,0,7.5.1,11.2,0,2,0,3.6-1.5,3.7-3.4.1-3.7,0-7.5,0-11.4ZM115.9,42.3v-6.4c-7.1,0-14.1,0-21.1,0-.3,0-1,.4-1,.6,0,1.9,0,3.8,0,5.7h22.2ZM65.2,68.1v5.7h23.3c0-1.4,0-2.8,0-4.2,0-1.2-.3-1.6-1.6-1.6-6.8,0-13.6,0-20.4,0-.4,0-.8,0-1.4.1ZM90.2,65.5c.5-4.9,1.3-5,3.9-7.7.6-.6,1.4-1.4,1.5-2.1.2-2,0-4.1,0-6.2h-9.9c0,.7,0,1.2,0,1.8,0,3.5,0,7.1,0,10.6q0,4,4.1,3.7c0,0,.2,0,.4-.1Z"/>
      <path class="cls-1" d="M101.6,123.8h-49.2v-4.6c-.5.1-.9.2-1.4.3-1.4.4-2.7.7-4.1.9-8.1,1.2-16.7-3.5-20-11-4.1-9.3-1.3-19,7.2-24.7.7-.5.8-.9.7-1.8,0-9.5,0-19,0-28.5v-7.8h60.2v-1.5l-3.9-.2v-11.8h27.6v11.8l-4,.2c0,.6,0,1.2,0,1.8,0,1.6,0,3.3,0,5-.3,2.9.5,5.1,2.7,7,1.8,1.5,2.6,3.6,2.6,6.5,0,9.7,0,19.3,0,29v11.7c0,5-2.7,7.7-7.7,7.7-.9,0-1.7,0-2.6,0-2.2,0-4.5,0-6.8,0-.6,0-1,0-1.1.2-.2.2-.2.5-.2,1.1,0,1.9,0,3.8,0,5.7,0,.8,0,1.6,0,2.4v.5ZM53.4,122.8h47.2c0-.7,0-1.3,0-2,0-2,0-3.8,0-5.7,0-.9.1-1.4.5-1.8.5-.5,1.2-.5,1.9-.5,2.2,0,4.5,0,6.8,0,.9,0,1.7,0,2.6,0,4.4,0,6.7-2.3,6.7-6.7v-11.7c0-9.7,0-19.3,0-29,0-2.6-.7-4.4-2.2-5.8-2.4-2.1-3.4-4.7-3-7.8.2-1.6.1-3.2,0-4.9,0-.8,0-1.5,0-2.3v-.5l4-.2v-9.9h-25.6v9.9l3.9.2v3.4h-60.2v6.8c0,9.5,0,19,0,28.5,0,1,0,1.9-1.2,2.7-8.1,5.4-10.8,14.6-6.9,23.4,3.2,7.1,11.3,11.6,19,10.5,1.3-.2,2.6-.5,4-.9.7-.2,1.3-.3,2-.5h.6c0-.1,0,4.7,0,4.7ZM79.2,121.5h-24.6v-7.4c0-5.7,0-11.4,0-17.1,0-.7,0-1.4.5-1.9.4-.4.9-.5,1.8-.5,4.8,0,9.7,0,14.5,0,1.9,0,3.8,0,5.8,0,.4,0,.7,0,1.1,0h1v26.8ZM55.6,120.5h22.6v-24.8h0c-.6,0-1.1,0-1.7,0-1.7,0-3.4,0-5.1,0-4.8,0-9.7,0-14.5,0-.5,0-.9,0-1.1.2-.2.2-.3.5-.2,1.1,0,5.7,0,11.4,0,17.1v6.4ZM99.4,121.5h-18.8v-6.5c0-1.6,0-3.2,0-4.8,0-3.7,0-7.6,0-11.4,0-3.4.6-6.1,2.1-8.7,1.7-2.9,3.2-5.8,4.7-8.9.7-1.3,1.4-2.7,2.1-4.1l.4-.8,1.4,2.5c.6,1.1,1.2,2.2,1.8,3.3.6,1.1,1.2,2.2,1.7,3.4,1.2,2.4,2.5,5,3.9,7.3.8,1.4.8,2.7.7,4,0,.3,0,.6,0,.9,0,5,0,10,0,14.9,0,1.9,0,3.8,0,5.6,0,.6,0,1.1,0,1.7v1.3ZM81.6,120.5h16.8v-.3c0-.6,0-1.2,0-1.7,0-1.9,0-3.8,0-5.6,0-4.9,0-10,0-14.9,0-.3,0-.6,0-1,0-1.2,0-2.3-.6-3.5-1.4-2.4-2.7-4.9-4-7.4-.6-1.1-1.1-2.2-1.7-3.4-.6-1.1-1.1-2.1-1.8-3.3l-.5-.9c-.6,1.1-1.1,2.2-1.7,3.2-1.6,3.1-3.1,6-4.8,8.9-1.4,2.4-2,5-1.9,8.2.1,3.8,0,7.7,0,11.4,0,1.6,0,3.2,0,4.8v5.4ZM44.2,118.9v-.5c-9-.2-16.4-7.2-16.9-16-.6-9.2,5.9-17,15-18.2,4.6-.6,8.8.5,12.5,3.3.4.3.7,1,.7,1.4,0,.3,0,.5-.1.7-2.4,3.1-2.2,6.6-2.1,10.3,0,.9,0,1.8,0,2.8,0,1.5,0,3,0,4.5,0,2.5,0,5.1,0,7.7,0,.7-.7,1.6-1.4,1.9-1.7.6-3.5,1.1-5.3,1.5-.6.2-1.2.3-1.9.5h-.5ZM44.7,85c-.7,0-1.5,0-2.2.2-8.6,1.1-14.6,8.5-14.1,17.1.5,8.4,7.6,15.1,16.1,15.1h.4s0,.3,0,.3c.5-.1.9-.3,1.4-.4,1.7-.5,3.5-1,5.2-1.5.3,0,.7-.7.8-1,0-2.5,0-5.1,0-7.7,0-1.5,0-3,0-4.5,0-.9,0-1.8,0-2.7-.1-3.7-.2-7.5,2.3-10.9,0-.2-.2-.7-.4-.8-2.9-2.2-6.1-3.3-9.6-3.3ZM108.3,111.7c-1.9,0-4,0-6.2,0-.6,0-1.4-.9-1.5-1.5,0-4.2,0-8.5,0-12.8,0-.6.8-1.5,1.4-1.5,4,0,7.9,0,12.1,0h3.4v.5c0,1.2,0,2.3,0,3.5,0,2.8,0,5.3,0,8,0,2.1-1.9,3.8-4.2,3.9-1.7,0-3.3,0-5.1,0ZM111.2,96.8c-3.1,0-6.1,0-9.2,0-.1,0-.4.4-.4.5,0,4.2,0,8.5,0,12.7,0,.1.4.5.5.5,4.1,0,7.6,0,11.2,0,1.7,0,3.2-1.4,3.2-2.9.1-2.6,0-5.2,0-7.9,0-1,0-2,0-3h-2.5c-1,0-1.9,0-2.9,0ZM115.9,94.6h0c-1.8,0-3.6,0-5.4,0-2.7,0-5.5,0-8.2,0-.7,0-1.6-.6-1.9-1.2l-1.1-2c-2.3-4.2-4.6-8.5-6.7-12.8-.6-1.2-.5-2.6-.4-3.9,0-.4,0-.8,0-1.2,0-.7,1.4-1.1,1.8-1.1,2.8,0,5.6,0,8.4,0h5.4c2.6,0,5.3,0,7.9,0,.5,0,1,0,1.4.4.4.4.4,1,.4,1.4,0,5.7,0,11.9,0,18.7,0,.4,0,1-.4,1.3s-.9.4-1.3.4ZM93.3,73.6c0,.3,0,.7,0,1,0,1.2-.1,2.5.3,3.5,2,4.3,4.4,8.6,6.6,12.8l1.1,2c.2.3.7.7,1.1.7,2.7,0,5.5,0,8.2,0s3.6,0,5.4,0c.4,0,.6,0,.6-.1,0,0,.1-.2.1-.6,0-6.8,0-13,0-18.7,0-.4,0-.6-.1-.7,0,0-.4-.1-.7-.1-2.6,0-5.3,0-7.9,0h-5.4c-2.8,0-5.6,0-8.3,0-.2,0-.7.2-.8.3ZM93.3,73.4h0s0,0,0,0ZM66.8,93.4c-2.2,0-4.4,0-6.5,0h-3.4c-.2,0-.3,0-.5,0-.1,0-.2,0-.4,0h-.7c0-.1,1.9-3.7,1.9-3.7,1.1-2.1,2.1-4.1,3.2-6.1l.7-1.3c.9-1.8,1.9-3.6,2.9-5.3.4-.6,1.2-1.3,1.9-1.3,6.1,0,12.2,0,18.2,0h3.5c.1,0,.3,0,.4,0l.7.2-.2.5c0,.1,0,.2,0,.3,0,.3-.1.6-.3.8l-.8,1.5c-2.2,4.3-4.6,8.7-6.9,13-.3.6-1.3,1.3-2,1.4-3.8,0-7.6,0-11.4,0ZM56.7,92.3c0,0,0,0,.1,0h3.4c5.9,0,11.9,0,17.9,0,.3,0,.9-.4,1.1-.8,2.3-4.3,4.7-8.7,6.9-13l.8-1.5c0-.1.1-.3.2-.5h-3.3c-6,0-12.1,0-18.2,0-.3,0-.8.4-1.1.8-1,1.7-1.9,3.5-2.8,5.3l-.7,1.3c-1,2-2.1,4-3.2,6.1l-1.2,2.4ZM56.8,87.2l-.5-.3c-3.1-2.3-5.9-3.5-8.8-3.9-3.5-.5-6.6-.2-9.6,1l-.6.2v-1.4c-.1-.4-.1-.7-.1-1,0-1.8,0-3.5,0-5.3,0-3.9,0-8,0-12,0-.5,0-1.2.5-1.6.4-.4,1.1-.5,1.6-.5,6.7,0,13.5,0,20.2,0h7.9v-1.2h-.2c-.4,0-.9,0-1.3,0h-5.2c-6.9,0-14.1,0-21.2,0-.7,0-1.4,0-1.9-.5-.4-.4-.5-.9-.5-1.8.1-2.7,0-5.5,0-7.9,0-.5,0-1.1.4-1.5.4-.4,1-.4,1.5-.5,14.3,0,28.8,0,43.2,0,.4,0,1,0,1.4.5.4.4.5,1,.4,1.5,0,4.2,0,8.7,0,13.2,0,.8-.1,1.2-.5,1.6-.4.4-1.1.5-1.7.5-4.2,0-8.3,0-12.5,0h-6c0,.5,0,1,0,1.6,0,1.5,0,3,0,4.4,0,1.7-.3,3.2-1.1,4.7-1.2,2.2-2.4,4.5-3.6,6.8-.5,1-1,2-1.5,3l-.3.5ZM44.5,81.7c1,0,2.1,0,3.2.2,3,.4,5.8,1.6,8.8,3.8.4-.8.9-1.6,1.3-2.4,1.2-2.4,2.4-4.6,3.7-6.9.7-1.3,1.1-2.6,1-4.2,0-1.5,0-2.9,0-4.5,0-.7,0-1.4,0-2v-.5h7c4.2,0,8.3,0,12.5,0,.5,0,.8,0,.9-.2.1-.1.2-.4.2-.9,0-4.6,0-9.1,0-13.3,0-.4,0-.7-.2-.8-.1-.1-.4-.2-.7-.2-14.4,0-28.9,0-43.2,0h0c-.4,0-.6,0-.7.2-.1.1-.2.4-.1.8,0,2.5.1,5.3,0,8,0,.5,0,.9.2,1.1.2.2.5.2,1.2.2,7.1,0,14.2,0,21.2,0h5.2c.5,0,.9,0,1.4,0h1.1v3.2h-8.9c-6.7,0-13.5,0-20.2,0-.5,0-.8,0-.9.2-.1.1-.2.4-.2.9,0,4,0,8.1,0,12,0,1.8,0,3.5,0,5.3,0,.3,0,.6,0,.9h0c2-.6,4.1-1,6.4-1ZM89.1,74.2h-24.3v-6.6h.5c.2,0,.3,0,.5,0,.3,0,.6,0,.9,0h6.1c4.8,0,9.5,0,14.3,0,.5,0,1.2,0,1.7.5.4.5.4,1.1.4,1.6,0,.9,0,1.9,0,2.9,0,.4,0,.9,0,1.3v.5ZM65.7,73.2h22.3c0-.3,0-.5,0-.8,0-1,0-2,0-2.9,0-.4,0-.7-.1-.9-.1-.1-.5-.2-.9-.2-4.8,0-9.5,0-14.3,0h-6.1c-.3,0-.5,0-.8,0,0,0,0,0,0,0v4.7ZM94.4,71.2c-1.7,0-2.1-.8-2.3-2.3-.5-4.7.8-8.2,4.1-10.8,1.4-1.1,1.3-2.5,1.2-4.2,0-.5,0-1,0-1.5,0-1.7,0-3.5,0-5.3,0-.8,0-1.6,0-2.4v-.5h15v.5c0,1,0,2,0,2.9,0,2.7,0,5.2,0,7.7,0,.8.4,1.7.9,2.3h.1c4.4,5.2,4.4,5.3,4.2,12,0,.2,0,.4,0,.6v.8c0,0-1,0-1,0-1.1,0-2.1,0-3.2,0s-2.9,0-4.4,0c-4.7,0-9.7,0-14.5,0h0ZM98.4,45.2c0,.6,0,1.3,0,1.9,0,1.8,0,3.6,0,5.3,0,.5,0,.9,0,1.4.1,1.7.2,3.6-1.6,5-3,2.4-4.2,5.5-3.7,9.9.1,1.2.2,1.4,1.4,1.4,4.8,0,9.7,0,14.5,0,2.1,0,4.3,0,6.4,0,.4,0,.7,0,1.1,0h.1c0-.2,0-.4,0-.5q.2-6.3-4-11.2h-.1c-.6-.9-1.1-2-1.1-3,0-2.6,0-5.1,0-7.8,0-.8,0-1.6,0-2.4h-13ZM87.7,66.3c-.8,0-1.4-.1-1.8-.5-.7-.6-.7-1.7-.7-3.8v-12.9h10.9v.5c0,.6,0,1.2,0,1.8,0,1.5,0,3,0,4.5,0,.8-.8,1.5-1.4,2.2l-.2.2c-.4.4-.7.7-1,1-1.7,1.7-2.3,2.3-2.7,6.3v.3s-.5.2-.5.2c-.1,0-.2,0-.4,0-.9,0-1.6.1-2.2.1ZM86.3,50.1v11.9c0,1.7,0,2.8.3,3.1.3.3,1.4.2,3.2,0,.5-4.1,1.2-4.9,3-6.6.3-.3.6-.6,1-1l.2-.2c.5-.5,1.1-1.1,1.1-1.6.1-1.4.1-2.8,0-4.3,0-.4,0-.9,0-1.3h-8.9ZM116.4,42.8h-23.2v-1.9c0-1.4,0-2.9,0-4.4,0-.6,1-1.1,1.5-1.1,5.9,0,11.8,0,17.8,0h3.9v7.4ZM94.2,41.8h21.2v-5.4h-2.9c-6,0-11.9,0-17.8,0-.1,0-.4.2-.5.3,0,1.4,0,2.8,0,4.2v.9Z"/>
    </g>
    <g>
      <path class="cls-1" d="M48.1,54.6c-.3-2.1-.3-2.1,1.6-2.1,5.4,0,10.8,0,16.2,0,.6,0,1.1,0,1.8,0v2.1h-19.6Z"/>
      <path class="cls-1" d="M68.2,55.1h-20.5v-.4c-.3-1.2-.3-1.8,0-2.3.4-.4,1-.4,2-.4,3.8,0,7.5,0,11.3,0h7.1v3.1ZM48.5,54.1h18.7v-1.1h-6.1c-3.8,0-7.5,0-11.3,0-.5,0-1.2,0-1.3,0,0,0,0,.5,0,1Z"/>
    </g>
    <g>
      <path class="cls-1" d="M66.9,101.4c3.6,0,6.7,3,6.8,6.6,0,3.6-3,6.8-6.7,6.8-3.6,0-6.7-3-6.7-6.6,0-3.8,2.9-6.8,6.6-6.8ZM71.3,108.2c0-2.4-1.8-4.4-4.2-4.5-2.4,0-4.5,1.9-4.6,4.4,0,2.4,2,4.5,4.5,4.5,2.4,0,4.3-1.9,4.3-4.4Z"/>
      <path class="cls-1" d="M66.9,115.3c-1.8,0-3.6-.7-4.9-2.1-1.4-1.4-2.2-3.1-2.2-5,0-2,.7-3.8,2.1-5.2,1.3-1.4,3.1-2.1,5-2.1h0c3.8,0,7.1,3.3,7.2,7.1,0,1.9-.7,3.7-2.1,5.1-1.4,1.4-3.2,2.2-5.1,2.2h0ZM66.9,101.9h0c-1.7,0-3.2.7-4.3,1.8-1.2,1.2-1.8,2.8-1.8,4.5,0,1.6.7,3.2,1.9,4.3,1.2,1.2,2.7,1.8,4.3,1.8,1.6,0,3.2-.7,4.4-1.9,1.2-1.2,1.8-2.8,1.8-4.4,0-3.3-3-6.2-6.3-6.1ZM66.9,113c-1.3,0-2.6-.5-3.5-1.5-.9-.9-1.5-2.2-1.4-3.5,0-1.3.6-2.5,1.5-3.4,1-.9,2.2-1.4,3.5-1.4,2.7,0,4.7,2.2,4.7,5h0c0,2.7-2.2,4.8-4.8,4.9h0ZM66.9,104.2c-1,0-2,.4-2.7,1.1-.8.7-1.2,1.7-1.2,2.7,0,1,.4,2,1.1,2.8.8.8,1.8,1.2,2.8,1.2h0c2.1,0,3.8-1.7,3.8-3.9,0-2.2-1.6-3.9-3.7-3.9,0,0,0,0,0,0Z"/>
    </g>
  </g>
</svg>