<?xml version="1.0" encoding="UTF-8"?>
<svg id="Capa_1" data-name="Capa 1" xmlns="http://www.w3.org/2000/svg" version="1.1" viewBox="0 0 160 160">
  <defs>
    <style>
      .cls-1 {
        fill: #3b3735;
        stroke-width: 0px;
      }
    </style>
  </defs>
  <path class="cls-1" d="M147,57.2c-3.1,4.1-7,6.3-12.2,6.7-6,.5-12,1-18.1,1.6-.8,0-1.8.5-2.3,1.1-2.3,2.3-4.6,4.6-6.7,7-.3.3-.3,1.1-.5,1.6v1c.3,4.4-5.2,9.3-9.4,8.6-1.3-.2-2.8,1.5-2.6,2.8,0,.5.2,1,.2,1.3,0,4.4-5.2,9.1-9.6,8.5-1.1-.2-2.9,1.6-2.8,2.8.5,2.4-.3,4.4-2.1,6-.7.7-1.3,1.5-2.1,2-1.1.7-2.4,1.5-3.6,1.5s-2.4.3-3.4,1.5c-.8,1-1.5,1.8-1.8,3.3-.3,1.3-1.1,2.6-2.1,3.7-.7.8-1.6,1.5-2.6,2.1-1.6,1.3-3.4,1.6-5.5,1-1.8-.7-3.7,1-3.6,2.8v1.1c-.3,3.3-4.9,7.6-8.1,7.6s-2.3-.3-3.3-.8c-1.1-.7-1.8-.5-2.8.2-3.1,2.1-6.2,4.2-9.1,6.3-1.6,1.1-3.3,1.1-4.4,0s-1.1-2.6,0-4.4c1.6-2.8,3.4-5.5,5-8.3v-.3c-2.1-1.8-2.4-4.2-1.1-6.7,1.8-3.3,3.6-6.3,8.1-5.7.5,0,1.1-.3,1.3-.8.3-.5.5-1.3.2-1.6-1-2-1-4.1.3-5.9,1-1.5,2.3-2.9,3.6-4.2.5-.5,1.3-.8,2.1-1,1.1-.3,2.4-.2,2.9-1.6.5-1.1,1-2.1,1-3.4,0-3.9,4.6-8.3,8.5-8.3s2.9-1.8,2.8-3.3v-1.1c0-4.4,5.2-9,9.4-8.3,1.3.2,2.8-1.5,2.4-2.8,0-.3,0-.7-.2-1-.3-4.4,5-9.3,9.4-8.6.5,0,1.1-.2,1.5-.5,3.6-3.7,7.3-7.6,10.9-11.4.5-.5.7-1.3.7-2.1.3-6,.7-11.9.7-17.9s2.1-9.3,6-12.7c14.2,13.5,28.3,26.9,42.6,40.4l.3.3ZM104.5,23.5c-.5,1.8-1,3.3-1.1,4.7-.3,6.5-.5,13-.8,19.5,0,.5.3,1.1.7,1.6,3.7,3.6,7.5,7.2,11.4,10.7.3.3,1,.5,1.5.5,6.7-.5,13.2-1.1,19.9-1.8,1.3,0,2.8-.8,4.2-1.5-12-11.4-23.6-22.5-35.6-33.8ZM89.9,64.2c4.4,2.4,8.8,4.9,13,7.3l7.6-8.1-10.6-9.9-10.3,10.9.2-.2ZM79.8,69.4c6.5,3.6,12.7,7.2,18.9,10.6.3.2,1,.3,1.3,0,1-.8,1.8-2,2.9-3.1-6.5-3.7-12.9-7.2-19.2-10.7h-1l-2.9,2.9v.3ZM90.9,89.6c-.3-.3-.3-.5-.5-.5-6-3.4-12-6.8-18.2-10.1-.3-.2-1-.3-1.3,0-1,.8-1.8,2-2.9,2.9,6.5,3.6,12.7,7.2,18.7,10.4.3.2,1.1.3,1.3,0,1-.8,1.8-1.8,2.6-2.8h.3ZM57,94.8c6,3.4,11.9,6.7,17.7,9.9.2,0,.7.2.8,0,1.1-1,2.1-2,3.3-2.9-6.2-3.4-12-6.7-17.9-9.9-.5-.2-1.3,0-1.8.2-.8.7-1.5,1.6-2.3,2.8h.2ZM66,113.7c-5.5-3.1-10.4-5.9-15.5-8.6-.5-.2-1.3-.2-1.6,0-.8.8-1.5,2-2.3,2.9,5,2.8,9.9,5.5,14.8,8.1.3.2.8.3,1.1,0,1.1-.8,2.1-1.8,3.4-2.8v.3ZM37,121.8c3.6,2,7,3.9,10.4,5.9.3,0,.8.3,1,.2,1.1-.8,2.3-1.8,3.7-2.8-4.1-2.3-7.6-4.4-11.4-6.3-.5-.2-1.3,0-1.6.2-.8.8-1.3,1.8-2.1,2.9ZM80.9,94.8c-3.9-2.3-7.8-4.4-11.6-6.5q-1.8-1-3.1.8c4.4,2.4,8.8,4.9,13,7.3l1.6-1.6ZM78,76.6c4.6,2.4,8.8,4.9,13.2,7.3l1.6-1.6c-4.4-2.4-8.8-4.9-13.2-7.3l-1.6,1.6ZM54.9,101.8c3.7,2.1,7.5,4.1,11.1,6.2,1.5.8,2.3.7,3.1-1-4.2-2.4-8.6-4.7-12.9-7.2-.5.7-.8,1.1-1.1,2h-.2ZM46.3,116.1c1.6,1,3.4,1.8,4.9,2.8s2.3.3,3.3-.8c-2.4-1.3-4.7-2.6-7-3.9-.5.8-.8,1.3-1.1,2Z"/>
</svg>