<?xml version="1.0" encoding="UTF-8"?>
<svg id="Capa_1" data-name="Capa 1" xmlns="http://www.w3.org/2000/svg" version="1.1" viewBox="0 0 160 160">
  <defs>
    <style>
      .cls-1 {
        fill: #3b3735;
        stroke-width: 0px;
      }

      .cls-2 {
        fill: #f5f0dd;
        stroke: #e74f40;
        stroke-miterlimit: 10;
        stroke-width: 6.1px;
      }
    </style>
  </defs>
  <circle class="cls-2" cx="80" cy="80" r="71.5"/>
  <path class="cls-1" d="M124,65.2c-1.9,2.5-4.3,3.9-7.5,4.1-3.7.3-7.4.6-11.1,1-.5,0-1.1.3-1.4.7-1.4,1.4-2.8,2.8-4.1,4.3-.2.2-.2.7-.3,1,0,.2,0,.4,0,.6.2,2.7-3.2,5.7-5.8,5.3-.8-.1-1.7.9-1.6,1.7,0,.3.1.6.1.8,0,2.7-3.2,5.6-5.9,5.2-.7-.1-1.8,1-1.7,1.7.3,1.5-.2,2.7-1.3,3.7-.4.4-.8.9-1.3,1.2-.7.4-1.5.9-2.2.9-.9,0-1.5.2-2.1.9-.5.6-.9,1.1-1.1,2-.2.8-.7,1.6-1.3,2.3-.4.5-1,.9-1.6,1.3-1,.8-2.1,1-3.4.6-1.1-.4-2.3.6-2.2,1.7,0,.2,0,.5,0,.7-.2,2-3,4.7-5,4.7-.7,0-1.4-.2-2-.5-.7-.4-1.1-.3-1.7.1-1.9,1.3-3.8,2.6-5.6,3.9-1,.7-2,.7-2.7,0-.7-.7-.7-1.6,0-2.7,1-1.7,2.1-3.4,3.1-5.1,0,0,0,0,0-.2-1.3-1.1-1.5-2.6-.7-4.1,1.1-2,2.2-3.9,5-3.5.3,0,.7-.2.8-.5.2-.3.3-.8.1-1-.6-1.2-.6-2.5.2-3.6.6-.9,1.4-1.8,2.2-2.6.3-.3.8-.5,1.3-.6.7-.2,1.5-.1,1.8-1,.3-.7.6-1.3.6-2.1,0-2.4,2.8-5.1,5.2-5.1.9,0,1.8-1.1,1.7-2,0-.2,0-.4,0-.7,0-2.7,3.2-5.5,5.8-5.1.8.1,1.7-.9,1.5-1.7,0-.2,0-.4-.1-.6-.2-2.7,3.1-5.7,5.8-5.3.3,0,.7-.1.9-.3,2.2-2.3,4.5-4.7,6.7-7,.3-.3.4-.8.4-1.3.2-3.7.4-7.3.4-11,0-3.2,1.3-5.7,3.7-7.8,8.7,8.3,17.4,16.5,26.2,24.8ZM97.9,44.5c-.3,1.1-.6,2-.7,2.9-.2,4-.3,8-.5,12,0,.3.2.7.4,1,2.3,2.2,4.6,4.4,7,6.6.2.2.6.3.9.3,4.1-.3,8.1-.7,12.2-1.1.8,0,1.7-.5,2.6-.9-7.4-7-14.5-13.8-21.9-20.8ZM88.9,69.5c2.7,1.5,5.4,3,8,4.5l4.7-5-6.5-6.1-6.3,6.7ZM82.7,72.7c4,2.2,7.8,4.4,11.6,6.5.2.1.6.2.8,0,.6-.5,1.1-1.2,1.8-1.9-4-2.3-7.9-4.4-11.8-6.6-.1,0-.5,0-.6,0-.6.6-1.1,1.1-1.8,1.8ZM89.5,85.1c-.2-.2-.2-.3-.3-.3-3.7-2.1-7.4-4.2-11.2-6.2-.2-.1-.6-.2-.8,0-.6.5-1.1,1.2-1.8,1.8,4,2.2,7.8,4.4,11.5,6.4.2.1.7.2.8,0,.6-.5,1.1-1.1,1.6-1.7ZM68.7,88.3c3.7,2.1,7.3,4.1,10.9,6.1.1,0,.4.1.5,0,.7-.6,1.3-1.2,2-1.8-3.8-2.1-7.4-4.1-11-6.1-.3-.1-.8,0-1.1.1-.5.4-.9,1-1.4,1.7ZM74.2,99.9c-3.4-1.9-6.4-3.6-9.5-5.3-.3-.1-.8-.1-1,0-.5.5-.9,1.2-1.4,1.8,3.1,1.7,6.1,3.4,9.1,5,.2.1.5.2.7,0,.7-.5,1.3-1.1,2.1-1.7ZM56.4,104.9c2.2,1.2,4.3,2.4,6.4,3.6.2,0,.5.2.6.1.7-.5,1.4-1.1,2.3-1.7-2.5-1.4-4.7-2.7-7-3.9-.3-.1-.8,0-1,.1-.5.5-.8,1.1-1.3,1.8ZM83.4,88.3c-2.4-1.4-4.8-2.7-7.1-4-1.1-.6-1.1-.6-1.9.5,2.7,1.5,5.4,3,8,4.5l1-1ZM81.6,77.1c2.8,1.5,5.4,3,8.1,4.5l1-1c-2.7-1.5-5.4-3-8.1-4.5l-1,1ZM67.4,92.6c2.3,1.3,4.6,2.5,6.8,3.8.9.5,1.4.4,1.9-.6-2.6-1.5-5.3-2.9-7.9-4.4-.3.4-.5.7-.7,1.2ZM62.1,101.4c1,.6,2.1,1.1,3,1.7.9.6,1.4.2,2-.5-1.5-.8-2.9-1.6-4.3-2.4-.3.5-.5.8-.7,1.2Z"/>
</svg>