<?xml version="1.0" encoding="UTF-8"?>
<svg id="Capa_1" data-name="Capa 1" xmlns="http://www.w3.org/2000/svg" version="1.1" viewBox="0 0 160 160">
  <defs>
    <style>
      .cls-1 {
        fill: #3b3735;
        stroke-width: 0px;
      }
    </style>
  </defs>
  <path class="cls-1" d="M57.9,75v.2c3.6-6.6,1.1-15.4-5.4-19.4-6.4-3.9-14-1.2-16.5,5.7-.4,1.1-.6,2.3-1,3.4v3.1c0,.1.1.2.1.4.7,4.7,3.1,8.4,7.2,10.8,5.5,3.4,12.5,1.4,15.5-4.2ZM41.5,63.2c1.4-3.3,4.9-4.5,8.1-2.6,3.1,1.8,4.5,4.7,4.6,7.6,0,2.5-.5,4.3-1.9,5.8-1.8,1.8-4.5,2-6.9.7-3.7-2.2-5.5-7.5-3.9-11.4Z"/>
  <path class="cls-1" d="M58.4,50.9c0,4.3,1,7.7,3,10.7,4.9,7.5,14.7,8.2,20.7,1.7h0c2.9-3.2,4.4-7.4,4.4-11.7,0-4.2-1.3-8.4-4.2-11.6-4.5-4.9-11-6-16.4-2.8-3,1.9-5,4.3-6.2,7-.9,2-1.3,4.1-1.4,6.2,0,0,0,.2,0,.2,0,0,0,0,0,0,0,0,0,0,0,0ZM67.2,43.6c3.4-3.5,8.5-3.1,11.4.8,1.6,2.2,2.3,4.7,2.3,7.2,0,2.5-.8,5-2.3,7.1-2,2.8-5.1,3.8-8,3-1.7-.4-3.3-1.5-4.4-3.2-1.6-2.3-2.2-4.9-2.2-7.6.2-2.9,1.1-5.4,3.1-7.5Z"/>
  <path class="cls-1" d="M94.4,70.5c3.8,2.4,8.7,2.4,13.1-.6,4.7-3.1,6.9-7.7,7.1-13.5h.1c-.1-.8-.1-1.8-.4-2.8-.1-.8-.4-1.7-.7-2.5-.6-1.7-1.6-3.2-2.8-4.4-3.4-3.6-8.6-4.7-13.6-2.6-7.1,3.1-10.8,12.2-8.2,19.6,1.1,3,3,5.3,5.3,6.7ZM108.3,53.2c.5,1.1.6,2.3.7,3h-.1c-.4,4.2-1.8,7.5-5.2,9.4-.9.5-1.8.8-2.7,1-2.7.2-5.1-1.4-6.3-4.3-1.8-4.6.5-10.6,4.9-12.8h-.1c2-.9,4.2-.8,5.9.1,1.3.7,2.3,2,2.9,3.6Z"/>
  <path class="cls-1" d="M119.5,67.6c-1,0-2,.2-3,.5-6.5,1.8-11,7.9-10.7,14.9.2,6.1,5.1,11,11.2,11,1.2-.1,2.4-.2,3.5-.6h0c5.9-1.8,10-6.9,10.6-13,.7-7.4-4.7-13-11.6-12.8ZM113.9,87.4c-.7-.4-1.2-1-1.6-1.7-.5-.7-.8-1.6-.9-2.6,0-.2,0-.5,0-.7,0-3.9,2.9-7.9,6.7-8.9,3.5-1,6.3.7,7.2,3.9,0,0,0,.1,0,.2,0,.2,0,.4.1.6,0,.3,0,.6,0,.9,0,4.5-4.1,9.1-8.6,9h0c-1.1.1-2.1-.2-2.9-.7Z"/>
  <path class="cls-1" d="M109.6,96.4c-3.4-5.4-6.9-10.8-10.4-16.1-3.6-5.5-8.7-9-15.2-10.2-9.1-1.7-17.1,1.1-22.6,8.4-4.7,6.1-8.4,12.8-12.5,19.3-1.3,2-1.8,4.5-1.8,6.9h0s0,0,0,.1c0,.8.2,1.8.4,2.6,0,.6.2,1.3.5,1.9,2.8,8.1,11.7,12.3,19.5,9,3.5-1.4,7.1-2.4,10.8-2.5,4.8-.2,9.3.8,13.6,2.6,2.8,1.1,5.7,1.2,8.5.6,4.5-1,7.8-3.8,9.7-7.4,2.5-4.5,2.6-10.3-.6-15.2ZM76.1,110.3c-3.6.4-7.1,1.3-10.5,2.6-1.1.4-2.1.7-3.2.8-3.2.2-6.2-1.3-8-4.1-2.2-3.1-2.3-6.5-.2-9.8,3.6-5.8,7.2-11.7,11.2-17.3,3.4-4.8,8.3-7,14.1-7.2,6.4.3,11.5,3,15,8.4,3.4,5.2,6.7,10.5,10,15.6,3.5,5.5,1,12.3-5.2,14.1h.2c-.8.2-1.6.3-2.4.3-1.3,0-2.6-.4-4-.9-4.1-1.7-8.3-2.6-12.7-2.7-1.5,0-2.9,0-4.4.2Z"/>
  <path class="cls-1" d="M58.4,50.8s0,0,0,0c0,0,0,0,0,0h0Z"/>
</svg>