<?xml version="1.0" encoding="UTF-8"?>
<svg id="Capa_1" data-name="Capa 1" xmlns="http://www.w3.org/2000/svg" version="1.1" viewBox="0 0 160 160">
  <defs>
    <style>
      .cls-1 {
        fill: #3b3735;
        stroke-width: 0px;
      }

      .cls-2 {
        fill: #f5f0dd;
        stroke: #e74f40;
        stroke-miterlimit: 10;
        stroke-width: 6.1px;
      }
    </style>
  </defs>
  <circle class="cls-2" cx="80" cy="80" r="71.5"/>
  <path class="cls-1" d="M131.4,92.6c-1,5.5-4.9,8.3-9.7,10.2-1.5.6-3,1.1-4.5,1.5-6,1.6-12.1,2.3-18.2,2.4-7.2.2-14.4.2-21.6,0-7.2-.2-14.4-1-21.3-3.4-.8-.3-1.7-.6-2.4-1-.6-.3-1.1-.2-1.7.1-3.2,2-6.6,3.6-10.4,4.3-7.6,1.3-12.2-3.7-13.3-9.3-1-4.6-.1-9.1,1.3-13.5,2.3-6.9,6-13,10.6-18.6,6.7-8.4,14.5-15.4,23.9-20.7,5-2.8,10.2-4.9,15.9-5.5,2.5-.3,4.9-.2,7.3.4,6.6,1.9,9.9,7.3,8.4,14-.9,3.9-2.7,7.3-4.9,10.6-1.1,1.7-2.3,3.3-3.5,5.1.6,0,1,0,1.5,0,9.1,0,18,1.4,26.6,4.8,1.1.4,2.2,1,3.3,1.5,1,.5,1.3,1.3.9,2.1-.4.8-1.3,1-2.3.6-1.3-.6-2.6-1.2-3.9-1.8.4,1.9.8,3.7,1.1,5.4.5,3,.5,6.1,0,9.2-.5,2.9-3.2,4.8-6.1,4.4-2.9-.4-5-3.2-4.6-6.1.8-5.8-.7-11-4.1-15.7-.3-.4-.9-.7-1.4-.8-2.5-.3-4.9-.5-7.6-.7.2.4.3.7.4.9,2.7,5.3,3.7,10.9,3.3,16.7-.2,3-2.1,5.1-4.9,5.4-2.4.3-5-1.3-5.7-3.7-.3-.9-.3-1.9-.2-2.8.3-4.1-.6-7.9-2.6-11.5,0-.1-.2-.2-.3-.4-2,2-3.8,4.1-5.8,6-1,1-1.4,1.9-1.3,3.3.1,1.3,0,2.7,0,4-.2,2.2-1.4,3.8-3.5,4.6-2,.8-3.9.4-5.6-1-.2-.1-.3-.3-.5-.4,0,0,0,0,0,0-2.7,2.2-5.4,4.3-8.3,6.7,3,.7,5.8,1.6,8.7,2.1,9.4,1.7,18.9,1.8,28.4,1.6,7.2,0,14.4-.5,21.4-2.1,2.7-.6,5.3-1.6,7.9-2.5.8-.3,1.6-.8,2.3-1.3,4.2-2.8,5.3-7.2,2.6-11.6-1-1.6-2.4-2.8-3.6-4.2-.6-.7-.7-1.6-.2-2.2.5-.6,1.4-.7,2.2,0,.1.1.3.2.4.3,2.8,2.5,4.9,5.4,5.5,9.3,0,0,0,.1.1.2v2.8ZM44.5,64.8c6.5.9,11.7,3.7,15.8,8.6.3.4.9.7,1.5.8,1,.2,1.9-.2,2.4-1.2.6-1,.4-2-.4-2.8-1.1-1.2-2.3-2.4-3.5-3.5-.6-.7-.7-1.6-.1-2.2.5-.6,1.5-.7,2.1,0,1.4,1.4,2.9,2.8,4.2,4.4,1.3,1.7,1.4,3.7.4,5.6-1,1.9-2.6,2.8-4.8,2.8-2,0-3.4-1-4.6-2.5-3.8-4.4-8.7-6.6-14.4-7-.3,0-.8,0-1,.2-1.3,1.8-2.6,3.6-4,5.5.6.2.9.4,1.3.5,4.8,2,8.9,5,12.2,9.1,1.5,1.9,1.7,4.3.4,6.3-1.2,1.9-3.5,2.9-5.8,2.4-1.5-.3-2.5-1.3-3.5-2.4-2.6-2.9-5.7-4.9-9.6-6.1-.3.9-.6,1.7-.9,2.5-1.1,3.7-1.8,7.5-.9,11.3.8,3.4,2.8,6,6.5,6.7,2,.4,3.9,0,5.8-.6,4.4-1.5,8.2-4,11.9-6.7,6.4-4.8,12.1-10.4,17.7-16.1,4.8-5,9.7-9.8,13.6-15.6,2.2-3.2,4.3-6.5,5.5-10.2.6-1.9,1-3.9.6-5.9-.7-3.5-3.2-5.5-6.5-6.3-5.8-1.4-11.1.5-16.4,2.7,0,.1.1.2.2.2.2.1.5.3.7.4,4,2.2,7.3,5.1,10,8.7,2.4,3.2.9,7.6-2.9,8.5-2.4.6-4.4-.2-5.9-2.2-3.5-4.5-8.1-7-13.7-7.9-.4,0-1,0-1.2.1-2.1,1.6-4.1,3.4-6.3,5.2.5.2.9.3,1.2.5,1.3.5,2.7,1.1,4,1.7.8.4,1.1,1,.8,1.8-.2.7-.8,1.1-1.6,1-.4,0-.7-.2-1-.4-1.7-.6-3.5-1.3-5.2-1.9-.3,0-.8,0-1,.2-1.2,1.2-2.3,2.4-3.5,3.8ZM82.9,74.6c2.9,4.7,4.2,9.8,3.7,15.3-.1,1.4,1,2.4,2.3,2.5,1.3,0,2.4-.9,2.5-2.4.5-6.1-.8-11.8-3.9-17-.1-.2-.4-.5-.6-.5-1.1,0-2.3-.2-3,1-.2.4-.6.7-.9,1.1ZM103.5,73.8c0,.3,0,.4,0,.4,2.9,4.9,4,10.1,3.2,15.7-.2,1.4.8,2.6,2.1,2.8,1.3.2,2.5-.7,2.7-2.2.7-5,0-9.9-1.8-14.5-.1-.3-.4-.6-.7-.7-1.8-.5-3.6-.9-5.5-1.4ZM60.9,50.1c.2.2.2.2.3.2,5.5,1.4,9.9,4.3,13.4,8.8.9,1.1,2.4,1.3,3.4.5,1.1-.8,1.2-2.2.3-3.4-3.1-4-6.9-7-11.6-9-.2,0-.6-.2-.8,0-1.7,1-3.3,1.9-5.1,3ZM34.2,80.5c4.6,1.5,8.3,4,11.3,7.6.9,1.1,2.3,1.1,3.3.3,1-.9,1.2-2.3.2-3.4-1.4-1.5-2.9-3-4.5-4.3-2.4-2-5.1-3.4-8.1-4.4-.7,1.4-1.4,2.8-2.2,4.3ZM70.6,87.6c0,0-.2,0-.2,0-1.4,1.3-2.7,2.6-4.1,3.9.8.8,1.7,1.1,2.7.7.9-.3,1.4-1,1.5-1.9.1-.9.1-1.7.2-2.6Z"/>
</svg>