<?xml version="1.0" encoding="UTF-8"?>
<svg id="Capa_1" data-name="Capa 1" xmlns="http://www.w3.org/2000/svg" version="1.1" viewBox="0 0 160 160">
  <defs>
    <style>
      .cls-1 {
        fill: #3b3735;
        stroke-width: 0px;
      }
    </style>
  </defs>
  <path class="cls-1" d="M48,125.4v-4.2c2.8.3,5.7,0,8.2.7,7.5,2.1,14.8,4.7,22.2,7.1,5.1,1.7,9.9,1.3,14.6-1.3,14.1-7.5,28.3-15,42.4-22.5,2.3-1.1,4.4-2.4,6.6-3.5-2-4-7.1-5.7-11.5-3.8-5.7,2.3-11.2,4.7-16.8,7.1-4.1,1.7-8.2,3.5-12.4,5.2-.8.4-1.8.6-2.8.6h-21.4v-4h20.2c.7,0,1.3,0,2-.1,1.7-.4,3-2.1,3-3.8s-1.3-3.3-3-3.7c-.6,0-1.3-.1-1.8-.1h-14.7c-1.8,0-3.7-.4-5.2-1.1-4-1.7-7.9-3.5-11.9-5.4-2.4-1.1-4.9-1.7-7.6-1.7h-10v-3.8s.1-.1.3-.1c4.8,0,9.8-.1,14.4.4,2.8.4,5.7,2,8.3,3.1,2.8,1.3,5.7,2.5,8.5,3.8,1,.4,2.3.7,3.4.7h14.6c5.5,0,8.6,2.8,8.9,8.3v.4c1-.4,2-.7,2.8-1.1,6.5-2.7,12.9-5.5,19.4-8.2,8.1-3.4,16.1.7,18.4,9.2-.3.1-.7.4-1.1.6-17.3,9.2-34.5,18.2-51.6,27.4-5.5,3-11.2,3.4-17,1.4-7.5-2.4-15-4.8-22.5-7.2-.6-.1-1.3-.3-2-.3h-5.1.3Z"/>
  <path class="cls-1" d="M85.1,19.1c1.1-.4,1.7.3,2,1.3,1.8,4.5,3.8,9.1,5.7,13.6.3.7.7,1,1.4,1.1,4.8.6,9.6,1.3,14.6,1.7,1.3,0,1.7.7,2.1,1.8s-.3,1.6-.8,2c-3.7,3.3-7.4,6.4-11,9.6-.6.6-.8,1-.6,1.8,1,4.9,1.8,9.8,3,14.7.3,1-.3,1.4-1,2s-1.3.7-2.1,0c-4.2-2.7-8.6-5.2-12.9-7.8-.7-.4-1.1-.4-1.8,0-4.4,2.4-8.8,4.8-13.2,7.4-1.1.7-1.6,0-2.4-.4s-.8-1.1-.6-1.8c1.1-4.8,2.3-9.8,3.4-14.6.1-.8,0-1.3-.6-1.8-3.7-3.4-7.4-6.9-11-10.2-1-.8-.4-1.6-.3-2.4.1-.8.7-1,1.6-1,5.1-.4,10-.8,15.1-1.3.8,0,1.1-.4,1.4-1.1,2.1-4.5,4.2-9.1,6.2-13.4.4-.8.8-1.4,1.8-1.1h0ZM72.5,62.5c3.7-2,7.1-3.8,10.5-5.8,1.3-.7,2.1-.7,3.4,0,3,1.8,6.1,3.7,9.1,5.5.3.1.6.3,1.1.6-.8-4.2-1.6-8.3-2.4-12.4-.1-.7,0-1.1.6-1.7,2.8-2.4,5.7-4.9,8.5-7.4.3-.3.6-.6,1.1-1-.4,0-.7,0-1-.1-3.8-.4-7.5-1-11.3-1.3-1,0-1.6-.6-2-1.6-1.4-3.4-2.8-6.8-4.2-10-.1-.4-.3-.7-.6-1.3-1.8,4-3.7,7.6-5.4,11.5-.3.7-.7,1.1-1.6,1.1-1.4,0-2.8.3-4.1.3-2.7.3-5.5.4-8.2.7v.3c.3.3.7.6,1,.8,2.7,2.5,5.4,5.1,8.2,7.5.7.6.8,1.1.6,2-1,4-1.8,7.9-2.8,12.3h-.4Z"/>
  <path class="cls-1" d="M129.3,76.1c-3.8-2.3-7.6-4.5-11.5-6.9-.7-.4-1.3-.4-2,0-3.5,2-7.2,4-10.7,5.9-.6.3-1.1.6-1.7,0-.6-.7-1.6-.8-1.3-2.3,1.1-4,2-8.1,2.8-12,0-.4,0-1.1-.4-1.6-.8-1-2-1.8-3-2.8,1-1,1.8-1.8,2.8-3,1.7,1.6,3.4,3.1,4.9,4.7.3.3.3,1.3.1,1.8-.7,3-1.4,6.1-2.1,9.2.6-.3.8-.3,1.1-.6,2.4-1.4,4.8-2.8,7.4-4.1.7-.3,1.8-.3,2.5,0,2.7,1.4,5.4,3.1,8.2,4.8-.4-2.4-.8-4.5-1.3-6.6-1-5.2-1.6-3.4,2.4-7.1,1.6-1.4,3.3-2.8,5.1-4.4-4.1-.4-7.8-1-11.2-1.3-1.4-3.4-2.7-6.6-4.2-10.3-1.1,2.4-2.3,4.4-3,6.5-1,2.7-2.4,4.4-5.5,4-.4,0-1,0-1.6.1,0-1.4-.3-2.5-.4-4,.3,0,.6-.3.8-.1,1.6.1,2.4-.6,3-2,1.4-3.4,3.1-6.6,4.7-9.9.3-.7.6-1.4,1.7-1.4s1.8.3,2.3,1.4c1.6,3.7,3.1,7.4,4.7,11,.3.7.7,1,1.4,1,4,.4,7.9,1,11.9,1.4.7,0,1.4,0,1.6,1,.3,1,.4,1.8-.4,2.7-.6.6-1.1,1-1.7,1.6-2.4,2.1-4.8,4.2-7.2,6.2-.7.6-.8,1.3-.7,2.1.7,3.7,1.4,7.5,2.3,11.2.3,1.3,0,2.3-1.1,2.8-.3,0-.6.3-.7.6v.3Z"/>
  <path class="cls-1" d="M30.8,47.4c4.4-.4,8.8-.8,13-1.1,1.1,0,1.6-.4,2-1.4,1.7-3.7,3.3-7.5,5.1-11.2.3-.4,1.4-.7,2.1-.7s1,.3,1.1.7c1.4,3.3,3,6.5,4.2,9.9.8,2.3,2,3.4,4.4,3.3h.8c-.1,1.3-.3,2.5-.6,4-2-.1-3.7-.3-5.5-.6-.4,0-.8-.6-1-1-1.1-2.5-2.3-5.2-3.4-7.8-.1-.4-.4-.8-.7-1.4-1.3,2.8-2.5,5.5-3.8,8.2-.6,1.4-1.4,2-3,2.1-3,0-5.8.4-9.1.7,2.1,2,4,4,6.1,5.5,1.7,1.3,2,2.7,1.4,4.8-.7,2.5-1.3,5.2-1.8,8.1,3-1.6,5.7-3.1,8.3-4.7,1-.6,1.8-.6,2.8,0,2.5,1.6,5.2,3.1,8.1,4.8-.6-2.7-.8-5.2-1.4-7.6-.7-2.3-.3-4,1.8-5.4.8-.4,1.4-1.3,2.3-2,.8,1,1.7,2,2.7,3-.6.6-1.1,1.1-1.7,1.6-1,.7-1.1,1.6-.8,2.7.8,3.8,1.4,7.6,2.3,11.3.3,1.4-.7,1.7-1.3,2.3s-1.3.1-1.8-.1c-3.5-2.1-6.9-4.2-10.5-6.4-.4-.3-1.1-.3-1.6,0-3.7,2-7.4,4-10.9,5.9-1.3.7-1.8-.3-2.5-.7-.8-.4-.6-1-.4-1.7,1-4,1.8-8.1,2.8-12,0-.4,0-1.1-.4-1.4-3.1-3-6.2-5.8-9.5-8.6-.1-.1-.4-.6-.3-.8.1-.8.4-1.6.7-2.4v.3Z"/>
  <path class="cls-1" d="M19.3,132.6v-4h20.2v-43.1h-20.2v-4h19.5c3.3,0,4.8,1.6,4.8,4.8v41.6c0,3.4-1.6,4.8-4.8,4.8h-19.5Z"/>
  <path class="cls-1" d="M34.1,122.3c0,1.6-1.3,2.8-2.8,2.8s-2.8-1.3-2.8-3,1.3-2.7,2.8-2.7,2.7,1.3,2.7,2.8h.1Z"/>
</svg>