<?xml version="1.0" encoding="UTF-8"?>
<svg id="Capa_1" data-name="Capa 1" xmlns="http://www.w3.org/2000/svg" version="1.1" viewBox="0 0 160 160">
  <defs>
    <style>
      .cls-1 {
        fill: #3b3735;
        stroke-width: 0px;
      }

      .cls-2 {
        fill: #f5f0dd;
        stroke: #e74f40;
        stroke-miterlimit: 10;
        stroke-width: 6.1px;
      }
    </style>
  </defs>
  <circle class="cls-2" cx="80" cy="80" r="71.5"/>
  <g>
    <path class="cls-1" d="M88.8,37.8c1.3.5,2,1.6,2.4,3,1,3.9,2.2,7.7,3.3,11.5.2.9.4,1.8.4,2.7,0,1.9,0,3.9.2,5.8.4-1.8.8-3.5,1.2-5.3.7-2.8,2.1-5.2,4.1-7.2,2.3-2.4,6.4-1.5,7.4,1.7.6,1.8.8,3.7,1.3,5.7.2,0,.7.2,1.2.3,2.7.6,4.2,2.9,3.6,5.6-.8,3.7-1.6,7.5-2.5,11.2-.1.6,0,.9.5,1.1,1.4.7,2.1,2.3,1.8,3.8-.4,1.6-1.7,2.7-3.3,2.8-1.5,0-3-1-3.5-2.4-.5-1.5,0-3.2,1.4-4.1.3-.2.5-.5.6-.9.9-4,1.8-8,2.6-11.9.4-1.7-.2-2.6-1.9-3-.3,0-.6-.1-.9-.2-.6,2.5-1.1,5.1-1.7,7.6-.6,2.7-1.2,5.4-1.8,8.1-.1.5,0,.8.3,1.2.4.6.7,1.4.8,2.1.1,1,0,2.1,0,3.1,0,1-.4,1.8-1.1,2.5-.2.2-.4.7-.4,1,0,6.6,0,13.1,0,19.7,0,4.1-1.2,7.8-3.7,11-.8,1-1.5,1.3-2.2.7-.6-.5-.6-1.2.2-2.2,2-2.6,3.1-5.5,3.1-8.8,0-3,0-6-.1-9.1-.2.6-.4,1.2-.7,1.8-.3.6-.5,1.1-.9,1.7-1.3,1.8-3.4,1.8-4.7,0-.5-.8-.9-1.6-1.2-2.5-.5-1.4-1-2.9-1.5-4.3-.2-.5-.5-1-.9-1.7-.4.7-.7,1.1-.9,1.5-.5,1.4-1,2.9-1.5,4.3-.3.9-.7,1.7-1.1,2.5-1.3,2.1-3.6,2-4.9,0-.5-.8-.8-1.7-1.1-2.5-.5-1.4-.9-2.8-1.5-4.2-.2-.5-.5-.9-.8-1.5-.4.6-.7.9-.8,1.3-.6,1.6-1,3.1-1.6,4.7-.3.9-.7,1.8-1.3,2.6-1.2,1.6-3.3,1.7-4.4,0-.7-1.1-1.2-2.3-1.6-3.5-.5-1.2-.8-2.5-1.3-3.7-.2-.4-.4-.8-.8-1.4-.4.6-.7,1-.9,1.4-.5,1.4-1,2.9-1.5,4.3-.3.8-.6,1.5-1,2.2-1.4,2.4-3.9,2.5-5.2,0-.5-1-.9-2-1.3-3,0,0,0,0,0,0,0,3.5-.1,6.9.1,10.4.5,6.6,6.2,12.4,12.8,13.2,1.5.2,3.1.2,4.6.2,3.5,0,6.9,0,10.4,0,2.8,0,5.5-.6,8-2,.8-.5,1.5-.3,1.9.3.4.7.1,1.3-.7,1.8-2.4,1.4-5.1,2.2-7.8,2.2-5,0-10,.1-14.9,0-8.6-.2-16-7.2-16.7-15.8-.2-2.1-.1-4.2-.1-6.4,0-5.1,0-10.2,0-15.3,0-.5-.2-.8-.5-1.3-.5-.6-.9-1.3-1-2.1-.2-1.2,0-2.4,0-3.6,0-1.6,1.2-2.8,2.8-2.8.6,0,1.1,0,1.8,0-.3-.8-.5-1.5-.9-2.2-.1-.2-.5-.4-.8-.4-5.2-.3-9.5-4.1-10.5-9.3-1-5.1,1.6-10.2,6.4-12.5,4.6-2.2,10.2-1,13.6,3,.2.2.3.4.6.7,0-.3.2-.4.2-.6,1.5-4.7,5.7-8,10.7-8.1,1,0,1.5.4,1.6,1.2,0,.8-.4,1.2-1.4,1.3-5.4.4-8.9,4.1-8.9,9.5,0,2,0,4,.2,6,.3,2.6,1.9,4.6,4,6,1.3.9,1.5,1.4,1.2,2.9-.2.8-.3,1.6-.5,2.5h2.5c.2-.7.3-1.4.5-2.1.3-1.3.8-1.8,2-2q1.7-.3,1.7-2c0-.3,0-.5,0-.6-1.3,0-2.6.3-3.9,0-3-.4-5.2-3.1-5.3-6.1,0-1.8,0-3.6,0-5.4.1-4.9,5.1-7.9,9.5-5.8.2,0,.3.2.6.3.5-1.6.9-3.2,1.4-4.8.5-1.6,1-3.3,1.4-4.9.3-1.4,1-2.5,2.4-3h1.5ZM86,97.6c.1,0,.2,0,.3,0,.2-.4.5-.8.7-1.2.5-1.2.8-2.5,1.3-3.8.5-1.2.9-2.4,1.6-3.4,1.2-1.7,3.3-1.6,4.4,0,.5.8.9,1.7,1.3,2.6.5,1.4,1,2.9,1.5,4.3.2.5.5,1,.9,1.6.3-.5.6-.8.7-1.1.3-.7.6-1.5.8-2.2.6-1.5,1-3.2,1.8-4.6.5-.9.7-1.8.7-2.8,0-1.2,0-2.4,0-3.6h-1.2c-9,0-17.9,0-26.9,0-1.3,0-1.9-.4-1.9-1.2,0-.8.6-1.2,1.9-1.2,9.3,0,18.7,0,28,0,.2,0,.4,0,.7,0,.7,0,1-.2,1-.9,0-.7,0-1.5,0-2.2q0-1.2-1.2-1.2c-14.7,0-29.5,0-44.2,0-.2,0-.3,0-.5,0-.5,0-.7.2-.7.7,0,.8,0,1.7,0,2.5,0,1.1,0,1.1,1.1,1.1,2.8,0,5.7,0,8.5,0,.2,0,.4,0,.7,0,.8,0,1.3.5,1.3,1.2,0,.7-.5,1.2-1.3,1.2-2.6,0-5.1,0-7.7,0-.3,0-.6,0-1,0,0,1.8,0,3.5,0,5.1,0,.1.1.3.2.4.5,1.1,1.1,2.1,1.6,3.3.5,1.4.9,2.8,1.4,4.2.2.4.5.8.9,1.4.4-.8.7-1.3,1-1.8.5-1.4.9-2.8,1.4-4.2.4-1,.8-1.9,1.4-2.7,1.1-1.5,3.1-1.4,4.2,0,.4.6.8,1.2,1.1,1.9.6,1.6,1.1,3.2,1.7,4.9.2.6.6,1.2.9,1.8,0,0,.2,0,.3,0,.3-.5.6-.9.8-1.4.5-1.4.9-2.9,1.5-4.3.4-.9.7-1.9,1.3-2.7,1.2-1.7,3.2-1.7,4.5,0,.4.6.8,1.3,1.1,2,.6,1.6,1.1,3.2,1.6,4.8.2.6.6,1.1.8,1.6ZM83.8,56.7v17.4h8.2c.4-1.2.6-16.2.2-17.4h-8.4ZM64.3,74.2c-.5-1.2-.9-2.4-1.3-3.6-.7-1.8-.6-2.2.9-3.4,3.5-2.9,4.3-7.9,1.9-11.8-2.4-3.8-7.3-5.3-11.4-3.4-4.2,1.9-6.2,6.7-4.8,11,1.2,3.5,4.4,6,8.1,6.1,1.5,0,2.4.6,2.8,2,.3,1,.7,2,1.1,3h2.6ZM97.3,61.8c2.6.6,5,1.1,7.6,1.7.4-1.8.8-3.5,1.1-5.3.5-2.4.3-4.8-.5-7.1-.5-1.6-2.4-2.1-3.6-.9-1.6,1.7-2.8,3.6-3.4,5.9-.5,1.9-.9,3.8-1.3,5.7ZM74.6,58.6s0,0,0,0c0,.9,0,1.8,0,2.8.2,2.9,3.3,4.7,5.9,3.4.6-.3,1-.6.9-1.4,0-.7,0-1.5,0-2.2,0-2.6,0-5.2,0-7.7,0-.3-.2-.6-.5-.7-1.3-.8-2.6-1-4-.3-1.4.7-2.2,1.8-2.3,3.4,0,.9,0,1.8,0,2.8ZM83.7,54.2h8.5c0-.1,0-.2,0-.2-.5-2-1.1-3.9-1.6-5.9,0-.2-.4-.3-.6-.3-1.3,0-2.6,0-3.8,0-.6,0-.8.2-.9.7-.1.7-.4,1.3-.6,2-.3,1.2-.7,2.4-1,3.8ZM72.1,74.2c.2-1,.4-1.9.6-2.8,0-.2-.1-.6-.3-.8-.9-.9-1.9-1.7-2.7-2.6-.6-.6-1-1.4-1.4-2.1-.9,1-1.9,2-2.8,3.1-.1.1-.2.5-.1.7.5,1.3,1,2.7,1.5,4,0,.2.4.4.6.4,1.5,0,3,0,4.7,0ZM94.6,74.2h7.9c.2-1.1.4-2.1.7-3.1-2.6-.6-5-1.1-7.5-1.6-.4,1.6-.7,3.2-1.1,4.8ZM103.7,68.7c.2-1,.4-1.9.6-2.8-2.5-.6-5-1.1-7.5-1.6-.2,1-.4,1.9-.6,2.8.1,0,.2,0,.3.1,2.4.5,4.7,1,7.2,1.6ZM89.9,45.3c-.5-1.6-.9-3.1-1.3-4.6,0-.2-.3-.4-.5-.5-.1,0-.4.2-.5.3-.5,1.5-.9,3.1-1.4,4.7h3.7ZM110.1,78.3c.6,0,1.1-.5,1.1-1.1,0-.6-.6-1.2-1.2-1.1-.6,0-1.1.6-1.1,1.1,0,.6.5,1.1,1.1,1.1ZM81.3,72.3c-1.5.2-1.7.4-1.5,1.9h1.5v-1.9Z"/>
    <path class="cls-1" d="M58.1,66.7c-3.6,0-6.5-3-6.5-6.6,0-3.6,3-6.6,6.6-6.5,3.6,0,6.5,3,6.5,6.6,0,3.6-3,6.6-6.6,6.5ZM58.1,64.3c2.3,0,4.2-1.8,4.2-4,0-2.2-1.8-4.1-4-4.2-2.3,0-4.2,1.8-4.2,4,0,2.2,1.8,4.1,4,4.2Z"/>
  </g>
</svg>