<?xml version="1.0" encoding="UTF-8"?>
<svg id="Capa_1" data-name="Capa 1" xmlns="http://www.w3.org/2000/svg" version="1.1" viewBox="0 0 160 160">
  <defs>
    <style>
      .cls-1 {
        fill: #3b3735;
        stroke-width: 0px;
      }
    </style>
  </defs>
  <path class="cls-1" d="M93.5,14.4c2,.8,3.1,2.5,3.8,4.7,1.6,6.1,3.4,12.1,5.2,18,.3,1.4.6,2.8.6,4.2,0,3,0,6.1.3,9.1.6-2.8,1.3-5.5,1.9-8.3,1.1-4.4,3.3-8.1,6.4-11.3,3.6-3.8,10-2.3,11.6,2.7.9,2.8,1.3,5.8,2,8.9.3,0,1.1.3,1.9.5,4.2.9,6.6,4.5,5.6,8.8-1.3,5.8-2.5,11.7-3.9,17.5-.2.9,0,1.4.8,1.7,2.2,1.1,3.3,3.6,2.8,6-.6,2.5-2.7,4.2-5.2,4.4-2.3,0-4.7-1.6-5.5-3.8-.8-2.3,0-5,2.2-6.4.5-.3.8-.8.9-1.4,1.4-6.3,2.8-12.5,4.1-18.6.6-2.7-.3-4.1-3-4.7-.5,0-.9-.2-1.4-.3-.9,3.9-1.7,8-2.7,11.9-.9,4.2-1.9,8.5-2.8,12.7-.2.8,0,1.3.5,1.9.6.9,1.1,2.2,1.3,3.3.2,1.6,0,3.3,0,4.9s-.6,2.8-1.7,3.9-.6,1.1-.6,1.6v30.8c0,6.4-1.9,12.2-5.8,17.2-1.3,1.6-2.3,2-3.4,1.1-.9-.8-.9-1.9.3-3.4,3.1-4.1,4.9-8.6,4.9-13.8s0-9.4-.2-14.2c-.3.9-.6,1.9-1.1,2.8-.5.9-.8,1.7-1.4,2.7-2,2.8-5.3,2.8-7.4,0-.8-1.3-1.4-2.5-1.9-3.9-.8-2.2-1.6-4.5-2.3-6.7-.3-.8-.8-1.6-1.4-2.7-.6,1.1-1.1,1.7-1.4,2.3-.8,2.2-1.6,4.5-2.3,6.7-.5,1.4-1.1,2.7-1.7,3.9-2,3.3-5.6,3.1-7.7,0-.8-1.3-1.3-2.7-1.7-3.9-.8-2.2-1.4-4.4-2.3-6.6-.3-.8-.8-1.4-1.3-2.3-.6.9-1.1,1.4-1.3,2-.9,2.5-1.6,4.9-2.5,7.4-.5,1.4-1.1,2.8-2,4.1-1.9,2.5-5.2,2.7-6.9,0-1.1-1.7-1.9-3.6-2.5-5.5-.8-1.9-1.3-3.9-2-5.8-.3-.6-.6-1.3-1.3-2.2-.6.9-1.1,1.6-1.4,2.2-.8,2.2-1.6,4.5-2.3,6.7-.5,1.3-.9,2.3-1.6,3.4-2.2,3.8-6.1,3.9-8.1,0-.8-1.6-1.4-3.1-2-4.7h0c0,5.5-.2,10.8.2,16.3.8,10.3,9.7,19.4,20,20.7,2.3.3,4.9.3,7.2.3h16.3c4.4,0,8.6-.9,12.5-3.1,1.3-.8,2.3-.5,3,.5.6,1.1.2,2-1.1,2.8-3.8,2.2-8,3.4-12.2,3.4-7.8,0-15.7.2-23.3,0-13.5-.3-25.1-11.3-26.1-24.7-.3-3.3-.2-6.6-.2-10v-24c0-.8-.3-1.3-.8-2-.8-.9-1.4-2-1.6-3.3-.3-1.9,0-3.8,0-5.6s1.9-4.4,4.4-4.4h2.8c-.5-1.3-.8-2.3-1.4-3.4-.2-.3-.8-.6-1.3-.6-8.1-.5-14.9-6.4-16.4-14.6-1.6-8,2.5-16,10-19.6,7.2-3.4,16-1.6,21.3,4.7.3.3.5.6.9,1.1,0-.5.3-.6.3-.9,2.3-7.4,8.9-12.5,16.8-12.7,1.6,0,2.3.6,2.5,1.9,0,1.3-.6,1.9-2.2,2-8.5.6-13.9,6.4-13.9,14.9s0,6.3.3,9.4c.5,4.1,3,7.2,6.3,9.4,2,1.4,2.3,2.2,1.9,4.5-.3,1.3-.5,2.5-.8,3.9h3.9c.3-1.1.5-2.2.8-3.3.5-2,1.3-2.8,3.1-3.1,1.8-.3,2.7-1.4,2.7-3.1v-.9c-2,0-4.1.5-6.1,0-4.7-.6-8.1-4.9-8.3-9.6v-8.5c.2-7.7,8-12.4,14.9-9.1.3,0,.5.3.9.5.8-2.5,1.4-5,2.2-7.5s1.6-5.2,2.2-7.7c.5-2.2,1.6-3.9,3.8-4.7h2.3l-.6.8ZM89.1,108h.5c.3-.6.8-1.3,1.1-1.9.8-1.9,1.3-3.9,2-6,.8-1.9,1.4-3.8,2.5-5.3,1.9-2.7,5.2-2.5,6.9,0,.8,1.3,1.4,2.7,2,4.1.8,2.2,1.6,4.5,2.3,6.7.3.8.8,1.6,1.4,2.5.5-.8.9-1.3,1.1-1.7.5-1.1.9-2.3,1.3-3.4.9-2.3,1.6-5,2.8-7.2.8-1.4,1.1-2.8,1.1-4.4v-5.6h-44c-2,0-3-.6-3-1.9s.9-1.9,3-1.9h44.9c1.1,0,1.6-.3,1.6-1.4v-3.4c0-1.3-.6-1.9-1.9-1.9H44.8c-.8,0-1.1.3-1.1,1.1v3.9q0,1.7,1.7,1.7h14.4c1.3,0,2,.8,2,1.9s-.8,1.9-2,1.9h-13.6v8c0,.2.2.5.3.6.8,1.7,1.7,3.3,2.5,5.2.8,2.2,1.4,4.4,2.2,6.6.3.6.8,1.3,1.4,2.2.6-1.3,1.1-2,1.6-2.8.8-2.2,1.4-4.4,2.2-6.6.6-1.6,1.3-3,2.2-4.2,1.7-2.3,4.9-2.2,6.6,0,.6.9,1.3,1.9,1.7,3,.9,2.5,1.7,5,2.7,7.7.3.9.9,1.9,1.4,2.8h.5c.5-.8.9-1.4,1.3-2.2.8-2.2,1.4-4.5,2.3-6.7.6-1.4,1.1-3,2-4.2,1.9-2.7,5-2.7,7,0,.6.9,1.3,2,1.7,3.1.9,2.5,1.7,5,2.5,7.5.3.9.9,1.7,1.3,2.5l-.5-.2ZM85.7,44v27.2h12.8c.6-1.9.9-25.4.3-27.2,0,0-13.2,0-13.2,0ZM55.1,71.4c-.8-1.9-1.4-3.8-2-5.6-1.1-2.8-.9-3.4,1.4-5.3,5.5-4.5,6.7-12.4,3-18.5-3.8-6-11.4-8.3-17.9-5.3-6.6,3-9.7,10.5-7.5,17.2,1.9,5.5,6.9,9.4,12.7,9.6,2.3,0,3.8.9,4.4,3.1.5,1.6,1.1,3.1,1.7,4.7h4.1l.2.2ZM106.8,52c4.1.9,7.8,1.7,11.9,2.7.6-2.8,1.3-5.5,1.7-8.3.8-3.8.5-7.5-.8-11.1-.8-2.5-3.8-3.3-5.6-1.4-2.5,2.7-4.4,5.6-5.3,9.2-.8,3-1.4,6-2,8.9h.2ZM71.3,47h0v4.4c.3,4.5,5.2,7.4,9.2,5.3.9-.5,1.6-.9,1.4-2.2v-15.5c0-.5-.3-.9-.8-1.1-2-1.3-4.1-1.6-6.3-.5s-3.4,2.8-3.6,5.3v4.4-.2ZM85.5,40.1h13.3v-.3c-.8-3.1-1.7-6.1-2.5-9.2,0-.3-.6-.5-.9-.5h-6c-.9,0-1.3.3-1.4,1.1-.2,1.1-.6,2-.9,3.1-.5,1.9-1.1,3.8-1.6,6v-.2ZM67.3,71.4c.3-1.6.6-3,.9-4.4,0-.3-.2-.9-.5-1.3-1.4-1.4-3-2.7-4.2-4.1-.9-.9-1.6-2.2-2.2-3.3-1.4,1.6-3,3.1-4.4,4.9-.2.2-.3.8-.2,1.1.8,2,1.6,4.2,2.3,6.3,0,.3.6.6.9.6h7.4l-.2.2ZM102.6,71.4h12.4c.3-1.7.6-3.3,1.1-4.9-4.1-.9-7.8-1.7-11.7-2.5-.6,2.5-1.1,5-1.7,7.5v-.2ZM116.8,62.8c.3-1.6.6-3,.9-4.4-3.9-.9-7.8-1.7-11.7-2.5-.3,1.6-.6,3-.9,4.4.2,0,.3,0,.5.2,3.8.8,7.4,1.6,11.3,2.5v-.2ZM95.2,26.1c-.8-2.5-1.4-4.9-2-7.2,0-.3-.5-.6-.8-.8-.2,0-.6.3-.8.5-.8,2.3-1.4,4.9-2.2,7.4h5.8v.2ZM126.8,77.8c.9,0,1.7-.8,1.7-1.7s-.9-1.9-1.9-1.7c-.9,0-1.7.9-1.7,1.7s.8,1.7,1.7,1.7h.2ZM81.7,68.4c-2.3.3-2.7.6-2.3,3h2.3v-3Z"/>
  <path class="cls-1" d="M45.4,59.6c-5.6,0-10.2-4.7-10.2-10.3s4.7-10.3,10.3-10.2c5.6,0,10.2,4.7,10.2,10.3s-4.7,10.3-10.3,10.2ZM45.4,55.9c3.6,0,6.6-2.8,6.6-6.3s-2.8-6.4-6.3-6.6c-3.6,0-6.6,2.8-6.6,6.3s2.8,6.4,6.3,6.6Z"/>
</svg>